<svg width="20" height="20" viewBox="0 0 20 20" fill="none" xmlns="http://www.w3.org/2000/svg">
<rect x="0.5" y="0.5" width="19" height="19" rx="3" fill="white"/>
<path fill-rule="evenodd" clip-rule="evenodd" d="M0 3.68421C0 1.64947 1.64948 0 3.68421 0H16.3158C18.3505 0 20 1.64948 20 3.68421V16.3158C20 18.3505 18.3505 20 16.3158 20H6.21053C5.91985 20 5.68421 19.7644 5.68421 19.4737C5.68421 19.183 5.91985 18.9474 6.21053 18.9474H16.3158C17.7692 18.9474 18.9474 17.7692 18.9474 16.3158V3.68421C18.9474 2.23083 17.7692 1.05263 16.3158 1.05263H3.68421C2.23083 1.05263 1.05263 2.23083 1.05263 3.68421V13.7895C1.05263 14.0801 0.816992 14.3158 0.526316 14.3158C0.23564 14.3158 0 14.0801 0 13.7895V3.68421Z" fill="#344A5E"/>
<path fill-rule="evenodd" clip-rule="evenodd" d="M5 10.0652C5.05092 9.79403 5.31198 9.61763 5.58311 9.6712C7.90353 10.1297 9.58438 12.1932 9.54794 14.5509C9.54367 14.8273 9.3166 15.0457 9.04077 15.0388C8.76494 15.0319 8.54479 14.8023 8.54906 14.526C8.5779 12.66 7.24538 11.0181 5.39872 10.6532C5.1276 10.5996 4.94908 10.3364 5 10.0652Z" fill="#344A5E"/>
<path fill-rule="evenodd" clip-rule="evenodd" d="M5.32839 7.06443C5.37072 6.79169 5.62603 6.60707 5.89862 6.65206C9.82897 7.3007 12.6958 10.7653 12.5903 14.7156C12.5829 14.9919 12.3534 15.2077 12.0776 15.1977C11.8019 15.1877 11.5843 14.9557 11.5917 14.6794C11.6837 11.2361 9.18257 8.20698 5.74533 7.63971C5.47273 7.59473 5.28606 7.33716 5.32839 7.06443Z" fill="#344A5E"/>
<path fill-rule="evenodd" clip-rule="evenodd" d="M5.93069 4.08929C5.97646 3.81714 6.23409 3.63579 6.50613 3.68421C11.8832 4.64136 15.7862 9.4124 15.6334 14.8409C15.6256 15.1171 15.3958 15.3326 15.12 15.3222C14.8443 15.3118 14.627 15.0795 14.6348 14.8033C14.7734 9.87817 11.2302 5.54014 6.3404 4.66973C6.06836 4.62131 5.88492 4.36143 5.93069 4.08929Z" fill="#344A5E"/>
<path fill-rule="evenodd" clip-rule="evenodd" d="M3 19C4.10457 19 5 18.1046 5 17C5 15.8954 4.10457 15 3 15C1.89543 15 1 15.8954 1 17C1 18.1046 1.89543 19 3 19Z" fill="#344A5E"/>
</svg>
